<?xml version="1.0" standalone="no"?>
<!DOCTYPE svg PUBLIC "-//W3C//DTD SVG 20010904//EN"
 "http://www.w3.org/TR/2001/REC-SVG-20010904/DTD/svg10.dtd">
<svg version="1.0" xmlns="http://www.w3.org/2000/svg"
 width="800.000000pt" height="800.000000pt" viewBox="0 0 800.000000 800.000000"
 preserveAspectRatio="xMidYMid meet">

<g transform="translate(0.000000,800.000000) scale(0.100000,-0.100000)"
fill="#000000" stroke="none">
<path d="M0 4000 l0 -4000 4000 0 4000 0 0 4000 0 4000 -4000 0 -4000 0 0
-4000z m5082 2161 c51 -22 101 -42 111 -45 30 -10 30 -34 -1 -99 -16 -34 -48
-101 -71 -148 -22 -47 -41 -89 -41 -92 0 -7 -46 -108 -121 -263 -21 -45 -39
-86 -39 -91 0 -6 -13 -34 -29 -64 -16 -30 -41 -85 -56 -124 -15 -38 -33 -77
-40 -85 -6 -8 -18 -31 -25 -50 -7 -19 -26 -64 -43 -98 -28 -60 -31 -64 -58
-58 -16 3 -50 15 -75 27 -26 11 -63 23 -83 26 -20 3 -55 12 -79 19 -24 8 -103
17 -175 20 -130 6 -149 4 -359 -36 -25 -5 -71 -20 -100 -34 -30 -14 -60 -26
-66 -26 -7 0 -12 -4 -12 -10 0 -5 -10 -10 -22 -10 -13 0 -34 -9 -48 -20 -14
-11 -54 -39 -90 -63 -36 -23 -83 -59 -105 -79 -22 -21 -43 -38 -47 -38 -10 0
-178 169 -178 179 0 6 -12 16 -27 23 -14 7 -31 22 -37 33 -6 11 -17 24 -24 29
-33 20 -312 307 -312 320 0 15 181 176 197 176 5 0 23 13 39 30 16 16 34 30
41 30 7 0 64 -65 128 -145 196 -244 244 -298 245 -273 0 9 -18 55 -40 102 -22
47 -40 91 -40 98 0 7 -18 50 -40 96 -22 46 -40 90 -40 99 0 8 -9 31 -21 49
-32 52 -23 72 52 114 36 20 76 40 90 43 13 3 67 21 119 41 52 19 148 47 212
62 l117 27 -2 101 -2 101 45 7 c67 11 398 18 450 10 45 -7 45 -7 48 -52 4 -40
-8 -226 -38 -608 -12 -147 -12 -182 -2 -182 9 0 52 122 52 150 0 12 16 74 36
138 19 64 39 137 44 162 5 25 19 77 31 115 12 39 28 97 36 130 25 107 27 110
53 109 14 -1 59 -11 100 -24 121 -35 122 -35 146 38 12 34 24 65 27 69 4 3 7
21 7 38 0 17 3 35 7 38 15 16 67 5 155 -32z m-602 -1267 c136 -47 159 -61 152
-86 -3 -13 -11 -32 -18 -43 -6 -11 -15 -34 -19 -52 -10 -47 -30 -47 -165 3
-114 41 -270 47 -411 15 -57 -13 -212 -69 -219 -80 -3 -4 -27 -20 -53 -36 -27
-15 -65 -43 -84 -61 -47 -44 -67 -43 -98 6 -14 22 -30 40 -36 40 -6 0 -19 10
-29 23 -17 20 -17 24 -3 40 9 9 21 17 27 17 6 0 23 13 38 29 51 54 235 150
368 193 64 20 153 26 315 23 141 -4 169 -7 235 -31z m-2592 -640 c34 -13 73
-30 85 -39 12 -8 28 -15 37 -15 8 0 30 -14 47 -30 l32 -31 -33 -44 c-19 -24
-48 -59 -65 -77 -17 -18 -31 -36 -31 -39 0 -3 -20 -28 -45 -55 -51 -54 -50
-54 -145 -17 -52 21 -76 24 -125 20 -129 -10 -227 -74 -293 -188 -30 -53 -32
-62 -32 -158 0 -98 19 -181 41 -181 5 0 9 -6 9 -13 0 -19 58 -77 115 -115 31
-20 65 -33 102 -38 74 -9 189 1 217 20 42 27 59 23 102 -24 69 -77 174 -208
174 -216 0 -13 -64 -62 -102 -77 -218 -92 -357 -98 -573 -26 -117 40 -280 172
-341 277 -15 26 -32 54 -39 62 -7 8 -25 58 -41 110 -24 82 -28 112 -28 215 0
86 5 137 18 180 10 33 21 71 25 85 9 36 47 104 65 119 9 8 16 20 16 28 0 8 18
32 40 53 22 21 40 42 40 47 0 5 15 17 33 28 17 10 43 29 56 42 24 23 145 85
206 105 105 34 331 30 433 -8z m1022 14 c65 -19 240 -109 250 -128 6 -11 15
-20 20 -20 13 0 60 -41 60 -52 0 -4 17 -25 38 -47 48 -50 115 -187 137 -279
23 -96 23 -240 0 -334 -17 -68 -36 -113 -88 -212 -26 -51 -161 -186 -209 -211
-21 -11 -38 -22 -38 -26 0 -5 -48 -28 -105 -49 -49 -18 -95 -30 -166 -41 -89
-14 -217 -1 -303 32 -28 10 -57 19 -64 19 -7 0 -39 17 -70 37 -31 21 -62 40
-68 43 -38 17 -184 178 -184 203 0 8 -6 19 -13 25 -22 18 -64 123 -76 187 -26
144 -24 197 9 360 10 50 72 181 100 213 8 10 37 43 63 75 27 31 55 57 63 57 8
0 14 4 14 8 0 15 84 67 170 106 65 30 103 40 165 45 99 8 248 3 295 -11z
m2554 0 c95 -24 292 -140 328 -193 3 -5 22 -28 42 -49 38 -43 126 -208 126
-236 0 -10 7 -45 15 -77 13 -49 15 -128 13 -454 l-3 -394 -172 -3 c-130 -2
-173 1 -173 10 0 439 -9 778 -21 808 -35 86 -119 190 -164 203 -11 3 -45 15
-75 26 -74 27 -141 26 -215 -4 -33 -14 -64 -25 -68 -25 -16 0 -88 -75 -114
-119 -46 -77 -57 -113 -58 -187 0 -64 4 -80 39 -148 42 -81 104 -143 173 -173
23 -10 81 -19 142 -22 100 -6 105 -7 120 -32 32 -54 115 -175 136 -199 12 -14
25 -36 28 -50 5 -22 2 -27 -31 -38 -77 -27 -189 -52 -235 -52 -65 0 -185 19
-222 35 -16 8 -43 17 -60 21 -42 10 -84 32 -114 60 -14 13 -31 24 -37 24 -12
0 -98 81 -149 140 -56 65 -110 187 -130 293 -43 232 20 462 168 620 92 97 180
156 314 208 69 27 302 31 397 7z m-1009 -17 c28 -13 70 -32 95 -43 47 -22 90
-55 90 -70 0 -9 -46 -71 -85 -113 -26 -29 -96 -113 -111 -133 -13 -17 -42 -14
-129 18 -186 68 -415 -74 -440 -273 -13 -103 1 -178 48 -251 23 -36 45 -66 49
-66 4 0 28 -15 52 -34 24 -18 68 -39 97 -46 67 -16 210 -8 244 14 30 20 75 21
75 2 0 -8 4 -16 9 -18 5 -1 37 -37 71 -78 34 -41 65 -77 69 -80 4 -3 17 -20
30 -38 l23 -33 -28 -22 c-41 -33 -102 -67 -122 -67 -9 0 -30 -7 -47 -16 -36
-19 -162 -43 -230 -44 -113 0 -289 55 -391 122 -130 87 -230 217 -280 368 -27
78 -29 97 -29 230 0 126 3 153 24 210 28 81 72 170 82 170 4 0 11 9 14 21 7
20 63 88 99 118 11 9 35 30 55 47 38 33 133 84 156 84 7 0 15 4 17 8 2 5 23
16 48 25 35 12 82 15 220 13 159 -2 180 -4 225 -25z m2627 8 c71 -27 169 -77
191 -96 23 -22 22 -35 -8 -63 -14 -13 -25 -28 -25 -33 0 -5 -10 -19 -22 -31
-27 -26 -60 -64 -106 -122 -30 -39 -35 -41 -65 -34 -17 4 -48 16 -67 26 -24
13 -57 19 -105 19 -133 0 -258 -73 -321 -187 l-29 -53 -5 -410 -5 -410 -177
-3 c-177 -2 -178 -2 -183 20 -3 13 -4 194 -2 403 3 359 4 385 26 465 23 86 78
210 93 210 4 0 8 6 8 13 0 13 53 79 95 119 50 48 114 92 174 120 133 62 154
67 323 67 136 1 164 -2 210 -20z m-5140 -1756 c19 -17 25 -63 8 -63 -5 0 -10
5 -10 10 0 22 -53 60 -84 60 -44 0 -57 -12 -63 -57 -6 -45 13 -73 51 -73 12 0
26 -4 32 -9 5 -5 23 -11 39 -13 23 -2 34 -11 48 -40 26 -52 8 -103 -41 -119
-73 -24 -172 12 -172 63 0 28 24 21 38 -11 16 -36 59 -53 103 -41 45 13 59 28
59 66 0 28 -6 38 -32 54 -18 11 -52 22 -75 26 -31 4 -50 15 -68 36 -30 36 -31
53 -5 96 19 31 22 32 87 32 48 0 72 -5 85 -17z m420 -50 l3 -68 95 0 95 0 3
68 c2 41 7 67 13 65 16 -5 17 -310 2 -315 -10 -4 -13 14 -13 66 0 59 -3 72
-19 81 -27 14 -154 13 -169 -2 -7 -7 -12 -40 -12 -80 0 -39 -4 -68 -10 -68 -6
0 -10 60 -10 160 0 95 4 160 10 160 5 0 10 -30 12 -67z m843 32 c26 -27 35
-45 37 -73 3 -68 -4 -136 -17 -163 -26 -50 -106 -71 -185 -49 -96 27 -111 235
-22 308 9 7 44 12 84 12 64 0 69 -2 103 -35z m415 -7 c7 -24 17 -63 21 -88 14
-84 25 -115 40 -118 12 -2 19 12 28 55 31 147 45 188 66 188 16 0 21 -8 23
-35 2 -19 8 -39 13 -44 5 -6 9 -18 9 -28 0 -30 41 -148 51 -148 5 0 9 13 9 30
0 16 6 47 14 67 8 21 22 66 32 101 10 34 22 62 27 62 12 0 2 -54 -30 -160 -14
-47 -30 -102 -36 -122 -6 -21 -17 -38 -23 -38 -7 0 -20 26 -29 58 -9 31 -21
67 -26 80 -5 13 -9 40 -9 60 0 43 -15 72 -28 57 -12 -13 -48 -137 -59 -200 -6
-41 -12 -50 -28 -50 -22 0 -26 10 -65 165 -28 110 -34 150 -23 150 6 0 16 -19
23 -42z m875 36 c19 -8 45 -55 45 -84 0 -12 -6 -33 -14 -48 -10 -20 -12 -42
-5 -89 5 -34 10 -66 11 -71 2 -6 -1 -12 -7 -14 -5 -1 -13 22 -17 52 -7 60 -24
79 -72 82 -17 1 -40 2 -51 3 -36 3 -45 -14 -45 -81 0 -50 -3 -64 -15 -64 -13
0 -15 24 -15 160 l0 160 84 0 c46 0 92 -3 101 -6z m632 -9 c61 -43 81 -161 40
-245 -18 -36 -30 -48 -62 -58 -79 -27 -184 5 -185 56 0 12 -4 22 -10 22 -14 0
-12 133 3 161 20 40 41 66 57 72 32 12 136 7 157 -8z m645 7 c30 -12 68 -98
68 -153 0 -71 -34 -137 -79 -156 -57 -24 -136 -13 -173 24 -26 26 -31 40 -35
96 -7 89 2 128 38 165 29 30 36 32 98 31 36 0 74 -3 83 -7z m491 -34 c8 -24
20 -61 27 -83 21 -65 58 -145 68 -145 5 0 15 21 22 48 8 26 19 56 26 67 6 11
17 38 24 60 24 83 31 95 56 95 l24 0 0 -160 c0 -136 -2 -160 -15 -160 -12 0
-15 20 -15 119 0 66 -4 122 -9 126 -13 7 -31 -27 -31 -57 0 -13 -4 -28 -8 -33
-5 -6 -21 -43 -36 -82 -15 -40 -33 -73 -39 -73 -12 0 -72 132 -83 185 -7 33
-22 55 -35 55 -5 0 -9 -54 -9 -120 0 -73 -4 -120 -10 -120 -12 0 -12 6 -12
130 1 200 0 190 21 190 14 0 24 -12 34 -42z"/>
<path d="M2606 3906 c-38 -14 -85 -40 -105 -58 -19 -18 -41 -38 -48 -45 -7 -6
-13 -14 -13 -17 0 -4 -10 -23 -23 -44 -62 -100 -63 -247 -1 -329 13 -17 24
-39 24 -47 0 -9 12 -23 28 -33 15 -9 40 -30 56 -45 81 -80 338 -75 406 7 8 10
24 21 36 25 21 8 42 40 86 130 18 35 23 63 23 125 0 72 -4 87 -35 149 -64 125
-163 192 -300 202 -53 4 -78 0 -134 -20z"/>
<path d="M3039 2486 c-57 -39 -74 -130 -38 -213 20 -48 47 -63 107 -63 115 1
159 181 65 268 -43 39 -84 42 -134 8z"/>
<path d="M4344 2486 c-3 -7 -4 -38 -2 -67 l3 -54 61 -3 c53 -2 64 0 87 22 34
31 34 60 2 91 -20 21 -34 25 -85 25 -42 0 -62 -4 -66 -14z"/>
<path d="M4988 2492 c-52 -34 -68 -65 -68 -130 0 -39 6 -71 18 -91 18 -33 82
-71 110 -66 9 2 23 4 30 4 7 1 28 17 47 37 34 35 35 38 35 115 0 43 -4 79 -9
79 -5 0 -12 8 -15 18 -8 23 -61 52 -94 52 -15 0 -39 -8 -54 -18z"/>
<path d="M5630 2487 c-47 -41 -60 -69 -60 -125 0 -112 79 -182 164 -147 48 20
67 52 73 123 8 82 -8 123 -56 150 -49 28 -89 27 -121 -1z"/>
</g>
</svg>
